<svg id="Tilda_Icons_26snw_facebook" xmlns="http://www.w3.org/2000/svg" width="7.669" height="16.42" viewBox="0 0 7.669 16.42">
  <path id="Tilda_Icons_26snw_facebook-2" data-name="Tilda_Icons_26snw_facebook" d="M2.528.846A3.6,3.6,0,0,1,4.941.005C5.85,0,6.759,0,7.668,0V2.879H5.906a.811.811,0,0,0-.821.63c-.008.642,0,1.284,0,1.926H7.669q-.1,1.391-.315,2.771c-.762.008-1.523,0-2.285,0-.008,2.739,0,5.475,0,8.214H1.676c-.02-2.739,0-5.479-.012-8.218H.009C0,7.29,0,6.369,0,5.452c.55-.008,1.1,0,1.655,0,.016-.893-.016-1.79.016-2.684A2.925,2.925,0,0,1,2.528.846Z" fill="#0077e3"/>
</svg>
